<svg width="54" height="49" viewBox="0 0 54 49" fill="none" xmlns="http://www.w3.org/2000/svg">
<g filter="url(#filter0_d_17_409)">
<path d="M18.4171 9C13.3321 9 9 12.8718 9 17.9003C9 21.3693 10.5951 24.2898 12.7092 26.7091C14.8161 29.12 17.5342 31.1437 19.9915 32.8375L24.2312 35.76C24.6956 36.08 25.3044 36.08 25.7688 35.76L30.0085 32.8375C32.4658 31.1437 35.1839 29.12 37.2908 26.7091C39.4049 24.2898 41 21.3693 41 17.9003C41 12.8718 36.6679 9 31.5829 9C28.9617 9 26.6551 10.2516 25 11.871C23.3449 10.2516 21.0383 9 18.4171 9Z" fill="#E86F6F" shape-rendering="crispEdges"/>
<path d="M18.4171 9C13.3321 9 9 12.8718 9 17.9003C9 21.3693 10.5951 24.2898 12.7092 26.7091C14.8161 29.12 17.5342 31.1437 19.9915 32.8375L24.2312 35.76C24.6956 36.08 25.3044 36.08 25.7688 35.76L30.0085 32.8375C32.4658 31.1437 35.1839 29.12 37.2908 26.7091C39.4049 24.2898 41 21.3693 41 17.9003C41 12.8718 36.6679 9 31.5829 9C28.9617 9 26.6551 10.2516 25 11.871C23.3449 10.2516 21.0383 9 18.4171 9Z" stroke="#FF8181" stroke-opacity="0.5" stroke-linecap="round" stroke-linejoin="round" shape-rendering="crispEdges"/>
</g>
<defs>
<filter id="filter0_d_17_409" x="0.5" y="0.5" width="53" height="48" filterUnits="userSpaceOnUse" color-interpolation-filters="sRGB">
<feFlood flood-opacity="0" result="BackgroundImageFix"/>
<feColorMatrix in="SourceAlpha" type="matrix" values="0 0 0 0 0 0 0 0 0 0 0 0 0 0 0 0 0 0 127 0" result="hardAlpha"/>
<feOffset dx="2" dy="2"/>
<feGaussianBlur stdDeviation="5"/>
<feComposite in2="hardAlpha" operator="out"/>
<feColorMatrix type="matrix" values="0 0 0 0 1 0 0 0 0 0.542262 0 0 0 0 0.542262 0 0 0 0.2 0"/>
<feBlend mode="normal" in2="BackgroundImageFix" result="effect1_dropShadow_17_409"/>
<feBlend mode="normal" in="SourceGraphic" in2="effect1_dropShadow_17_409" result="shape"/>
</filter>
</defs>
</svg>
