<svg width="26" height="26" viewBox="0 0 26 26" fill="none" xmlns="http://www.w3.org/2000/svg">
<path d="M13.0282 0C5.83295 0 0 5.8203 0 13C0 20.1797 5.83295 26 13.0282 26C19.7993 26 25.3632 20.8464 25.9965 14.2553C26.026 13.9485 25.868 13.6541 25.5959 13.5084C25.3237 13.3627 24.9905 13.3943 24.7507 13.5885C23.4331 14.6554 21.7551 15.2941 19.9256 15.2941C15.693 15.2941 12.2619 11.8704 12.2619 7.64706C12.2619 5.13866 13.4714 2.91236 15.3436 1.51667C15.5911 1.33213 15.7034 1.01731 15.6283 0.718231C15.5532 0.419152 15.3055 0.194323 15 0.148023C14.3565 0.050504 13.6981 0 13.0282 0Z" fill="#F3F3F3"/>
</svg>
