<svg width="42" height="30" viewBox="0 0 42 30" fill="none" xmlns="http://www.w3.org/2000/svg">
<path d="M25.5073 7.2H1.8C0.805887 7.2 0 6.39411 0 5.4C0 4.40589 0.805887 3.6 1.8 3.6H25.5073C26.2486 1.50265 28.2488 0 30.6 0C32.9512 0 34.9514 1.50265 35.6927 3.6H40.2C41.1941 3.6 42 4.40589 42 5.4C42 6.39411 41.1941 7.2 40.2 7.2H35.6927C34.9514 9.29735 32.9512 10.8 30.6 10.8C28.2488 10.8 26.2486 9.29735 25.5073 7.2Z" fill="#D5D5D5"/>
<path d="M40.2 26.4C41.1941 26.4 42 25.5941 42 24.6C42 23.6059 41.1941 22.8 40.2 22.8H16.4927C15.7514 20.7027 13.7512 19.2 11.4 19.2C9.04881 19.2 7.04858 20.7027 6.30727 22.8H1.8C0.805888 22.8 0 23.6059 0 24.6C0 25.5941 0.805888 26.4 1.8 26.4H6.30727C7.04858 28.4973 9.04881 30 11.4 30C13.7512 30 15.7514 28.4973 16.4927 26.4H40.2Z" fill="#D5D5D5"/>
</svg>
