<svg width="30" height="30" viewBox="0 0 30 30" fill="none" xmlns="http://www.w3.org/2000/svg">
<path d="M15 0C15.578 0 16.0465 0.468539 16.0465 1.04651V2.44186C16.0465 3.01983 15.578 3.48837 15 3.48837C14.422 3.48837 13.9535 3.01983 13.9535 2.44186V1.04651C13.9535 0.468539 14.422 0 15 0Z" fill="#565656"/>
<path d="M15 6.97674C10.5689 6.97674 6.97674 10.5689 6.97674 15C6.97674 19.4311 10.5689 23.0233 15 23.0233C19.4311 23.0233 23.0233 19.4311 23.0233 15C23.0233 10.5689 19.4311 6.97674 15 6.97674Z" fill="#565656"/>
<path d="M5.87341 4.39343C5.46472 3.98474 4.80211 3.98474 4.39342 4.39343C3.98473 4.80212 3.98473 5.46473 4.39342 5.87342L5.38008 6.86008C5.78877 7.26877 6.45138 7.26877 6.86007 6.86008C7.26876 6.45139 7.26876 5.78878 6.86007 5.38009L5.87341 4.39343Z" fill="#565656"/>
<path d="M30 15C30 15.578 29.5315 16.0465 28.9535 16.0465H27.5581C26.9802 16.0465 26.5116 15.578 26.5116 15C26.5116 14.422 26.9802 13.9535 27.5581 13.9535H28.9535C29.5315 13.9535 30 14.422 30 15Z" fill="#565656"/>
<path d="M25.6066 5.87341C26.0153 5.46472 26.0153 4.80211 25.6066 4.39342C25.1979 3.98473 24.5353 3.98473 24.1266 4.39342L23.1399 5.38008C22.7312 5.78877 22.7312 6.45138 23.1399 6.86007C23.5486 7.26876 24.2112 7.26876 24.6199 6.86007L25.6066 5.87341Z" fill="#565656"/>
<path d="M15 26.5116C15.578 26.5116 16.0465 26.9802 16.0465 27.5581V28.9535C16.0465 29.5315 15.578 30 15 30C14.422 30 13.9535 29.5315 13.9535 28.9535V27.5581C13.9535 26.9802 14.422 26.5116 15 26.5116Z" fill="#565656"/>
<path d="M24.62 23.1399C24.2113 22.7313 23.5487 22.7313 23.14 23.1399C22.7313 23.5486 22.7313 24.2112 23.14 24.6199L24.1267 25.6066C24.5354 26.0153 25.198 26.0153 25.6067 25.6066C26.0154 25.1979 26.0154 24.5353 25.6067 24.1266L24.62 23.1399Z" fill="#565656"/>
<path d="M3.48837 15C3.48837 15.578 3.01983 16.0465 2.44186 16.0465H1.04651C0.468539 16.0465 0 15.578 0 15C0 14.422 0.468539 13.9535 1.04651 13.9535H2.44186C3.01983 13.9535 3.48837 14.422 3.48837 15Z" fill="#565656"/>
<path d="M6.85998 24.6199C7.26866 24.2112 7.26866 23.5486 6.85998 23.1399C6.45129 22.7312 5.78867 22.7312 5.37999 23.1399L4.39333 24.1266C3.98464 24.5353 3.98464 25.1979 4.39333 25.6066C4.80201 26.0153 5.46463 26.0153 5.87332 25.6066L6.85998 24.6199Z" fill="#565656"/>
</svg>
